<svg xmlns="http://www.w3.org/2000/svg" viewBox="0 0 1000 1000">
    <g data-name="fymiso">
        <path d="M854,854v-.9A498.42,498.42,0,0,0,1000,500C1000,223.86,776.14,0,500,0S0,223.86,0,500A498.42,498.42,0,0,0,146,853.1v.9h.9A498.29,498.29,0,0,0,465,998.78V1000h70v-1.22A498.29,498.29,0,0,0,853.1,854Zm0-109.84V255.84a430.2,430.2,0,0,1,0,488.32ZM778.38,172.27,500.48,450.16,266.31,216h369.2l70-70H255.84a430.1,430.1,0,0,1,522.54,26.27ZM216,264.68,425.32,474H216ZM70,500a428,428,0,0,1,76-244.16V744.16A428,428,0,0,1,70,500ZM216,822.87V544H465V928.59A428.25,428.25,0,0,1,216,822.87ZM535,514.64l249-249V822.87A428.25,428.25,0,0,1,535,928.59Z" />
    </g>
</svg>